<?xml version="1.0" encoding="UTF-8" standalone="no"?>
<svg
   xmlns:dc="http://purl.org/dc/elements/1.1/"
   xmlns:cc="http://creativecommons.org/ns#"
   xmlns:rdf="http://www.w3.org/1999/02/22-rdf-syntax-ns#"
   xmlns:svg="http://www.w3.org/2000/svg"
   xmlns="http://www.w3.org/2000/svg"
   id="svg2"
   viewBox="0 0 14 14"
   height="14"
   width="14"
   version="1.1">
  <defs
     id="defs3053" />
  <metadata
     id="metadata8">
    <rdf:RDF>
      <cc:Work
         rdf:about="">
        <dc:format>image/svg+xml</dc:format>
        <dc:type
           rdf:resource="http://purl.org/dc/dcmitype/StillImage" />
        <dc:title></dc:title>
      </cc:Work>
    </rdf:RDF>
  </metadata>
  <path
     id="rect826"
     d="M 1.6660156 0 L 1.6660156 3 L 0 4 L 0 5 L 5 5 L 5 4 L 3.3339844 3 L 3.3339844 0 L 1.6660156 0 z M 11.75 3.25 A 1.75 1.75 0 0 0 10 5 L 11 5 A 0.75 0.75 0 0 1 11.75 4.25 A 0.75 0.75 0 0 1 12.5 5 L 12.5 7 L 10.5 7 L 10.5 14 L 14 14 L 14 7 L 13.5 7 L 13.5 5 A 1.75 1.75 0 0 0 11.75 3.25 z M 0 7 L 0 14 L 5 14 L 5 7 L 0 7 z M 6 7 L 6 14 L 9.5 14 L 9.5 7 L 6 7 z M 11.462891 7.9179688 A 0.5 0.5 0 0 1 11.464844 7.9179688 A 0.5 0.5 0 0 1 11.5 7.9179688 A 0.5 0.5 0 0 1 12 8.4179688 A 0.5 0.5 0 0 1 11.5 8.9179688 A 0.5 0.5 0 0 1 11 8.4179688 A 0.5 0.5 0 0 1 11.462891 7.9179688 z M 8.4628906 7.984375 A 0.5 0.5 0 0 1 8.4648438 7.984375 A 0.5 0.5 0 0 1 8.5 7.984375 A 0.5 0.5 0 0 1 9 8.484375 A 0.5 0.5 0 0 1 8.5 8.984375 A 0.5 0.5 0 0 1 8 8.484375 A 0.5 0.5 0 0 1 8.4628906 7.984375 z M 2.5 7.9941406 A 0.5 0.5 0 0 1 3 8.4941406 A 0.5 0.5 0 0 1 2.5 8.9941406 A 0.5 0.5 0 0 1 2 8.4941406 A 0.5 0.5 0 0 1 2.5 7.9941406 z M 1 8 A 0.5 0.5 0 0 1 1.5 8.5 A 0.5 0.5 0 0 1 1 9 A 0.5 0.5 0 0 1 0.5 8.5 A 0.5 0.5 0 0 1 1 8 z M 4 8 A 0.5 0.5 0 0 1 4.5 8.5 A 0.5 0.5 0 0 1 4 9 A 0.5 0.5 0 0 1 3.5 8.5 A 0.5 0.5 0 0 1 4 8 z M 1 11 L 4 11 L 4 13 L 1 13 L 1 11 z "
     style="fill:#000000;fill-opacity:1;stroke:none;stroke-width:1.16444492;stroke-linecap:square;stroke-miterlimit:4;stroke-dasharray:none;stroke-opacity:1;paint-order:markers stroke fill" />
  <rect
     y="10"
     x="-5"
     height="0.99999994"
     width="3"
     id="rect861-5"
     style="fill:#ffffff;fill-opacity:1;stroke:none;stroke-width:1.30211413;stroke-linecap:square;stroke-miterlimit:4;stroke-dasharray:none;stroke-opacity:1;paint-order:markers stroke fill" />
</svg>
